<svg width="14" height="14" viewBox="0 0 14 14" fill="none" xmlns="http://www.w3.org/2000/svg">
<path d="M1.76172 6.26172H12.2383L11.1133 2.88672H2.88672L1.76172 6.26172ZM10.3047 9.67188C10.5391 9.88281 10.8086 9.98828 11.1133 9.98828C11.418 9.98828 11.6758 9.88281 11.8867 9.67188C12.1211 9.4375 12.2383 9.16797 12.2383 8.86328C12.2383 8.55859 12.1211 8.30078 11.8867 8.08984C11.6758 7.85547 11.418 7.73828 11.1133 7.73828C10.8086 7.73828 10.5391 7.85547 10.3047 8.08984C10.0938 8.30078 9.98828 8.55859 9.98828 8.86328C9.98828 9.16797 10.0938 9.4375 10.3047 9.67188ZM2.07812 9.67188C2.3125 9.88281 2.58203 9.98828 2.88672 9.98828C3.19141 9.98828 3.44922 9.88281 3.66016 9.67188C3.89453 9.4375 4.01172 9.16797 4.01172 8.86328C4.01172 8.55859 3.89453 8.30078 3.66016 8.08984C3.44922 7.85547 3.19141 7.73828 2.88672 7.73828C2.58203 7.73828 2.3125 7.85547 2.07812 8.08984C1.86719 8.30078 1.76172 8.55859 1.76172 8.86328C1.76172 9.16797 1.86719 9.4375 2.07812 9.67188ZM12.2031 2.5L13.75 7V13.0117C13.75 13.2227 13.6797 13.3984 13.5391 13.5391C13.3984 13.6797 13.2227 13.75 13.0117 13.75H12.2383C12.0273 13.75 11.8516 13.6797 11.7109 13.5391C11.5703 13.3984 11.5 13.2227 11.5 13.0117V12.2383H2.5V13.0117C2.5 13.2227 2.42969 13.3984 2.28906 13.5391C2.14844 13.6797 1.97266 13.75 1.76172 13.75H0.988281C0.777344 13.75 0.601562 13.6797 0.460938 13.5391C0.320312 13.3984 0.25 13.2227 0.25 13.0117V7L1.79688 2.5C1.9375 2.00781 2.30078 1.76172 2.88672 1.76172H4.75V0.25H9.25V1.76172H11.1133C11.6992 1.76172 12.0625 2.00781 12.2031 2.5Z" fill="#057647"/>
</svg>
