<svg width="15" height="13" viewBox="0 0 15 13" fill="none" xmlns="http://www.w3.org/2000/svg">
<path d="M7.41211 4.625H7.5C8.00781 4.625 8.44727 4.81055 8.81836 5.18164C9.18945 5.55273 9.375 5.99219 9.375 6.5V6.61719L7.41211 4.625ZM4.7168 5.12305C4.48242 5.5918 4.36523 6.05078 4.36523 6.5C4.36523 7.35938 4.66797 8.10156 5.27344 8.72656C5.89844 9.33203 6.64062 9.63477 7.5 9.63477C7.94922 9.63477 8.4082 9.51758 8.87695 9.2832L7.91016 8.31641C7.75391 8.35547 7.61719 8.375 7.5 8.375C6.99219 8.375 6.55273 8.18945 6.18164 7.81836C5.81055 7.44727 5.625 7.00781 5.625 6.5C5.625 6.38281 5.64453 6.24609 5.68359 6.08984L4.7168 5.12305ZM1.25977 1.66602L2.05078 0.875L13.125 11.9492L12.334 12.7402C12.2363 12.6426 11.9238 12.3398 11.3965 11.832C10.8887 11.3242 10.498 10.9336 10.2246 10.6602C9.38477 11.0117 8.47656 11.1875 7.5 11.1875C5.95703 11.1875 4.56055 10.7578 3.31055 9.89844C2.06055 9.03906 1.16211 7.90625 0.615234 6.5C0.830078 5.99219 1.16211 5.43555 1.61133 4.83008C2.08008 4.20508 2.5293 3.72656 2.95898 3.39453C2.72461 3.16016 2.39258 2.82812 1.96289 2.39844C1.55273 1.96875 1.31836 1.72461 1.25977 1.66602ZM7.5 3.36523C7.10938 3.36523 6.72852 3.44336 6.35742 3.59961L5.00977 2.25195C5.77148 1.95898 6.60156 1.8125 7.5 1.8125C9.04297 1.8125 10.4297 2.24219 11.6602 3.10156C12.9102 3.96094 13.8086 5.09375 14.3555 6.5C13.8867 7.65234 13.1738 8.63867 12.2168 9.45898L10.4004 7.64258C10.5566 7.27148 10.6348 6.89062 10.6348 6.5C10.6348 5.64062 10.3223 4.9082 9.69727 4.30273C9.0918 3.67773 8.35938 3.36523 7.5 3.36523Z" fill="#555D5D"/>
</svg>
